<svg xmlns="http://www.w3.org/2000/svg" width="256" height="256" viewBox="0 0 256 256">
  <!-- stamp_home: passport stamp for region "Home". Region ring #B8BFCC, emblem #4E566B.
       Frame is shared by all stamp_*.svg: ring + worn dashed band + cream centre + emblem. -->
  <defs>
    <mask id="ring"><circle cx="128" cy="128" r="100" fill="#fff"/></mask>
    <mask id="disc"><circle cx="128" cy="128" r="74" fill="#fff"/></mask>
    <mask id="inset">
      <circle cx="128" cy="128" r="74" fill="#fff"/>
      <circle cx="133" cy="135" r="74" fill="#000"/>
    </mask>
  </defs>
  <g transform="rotate(-6 128 128)">
    <!-- outline + depth -->
    <circle cx="128" cy="135" r="112" fill="#1E1B2E"/>
    <circle cx="128" cy="128" r="112" fill="#1E1B2E"/>
    <!-- ring: shade, then lit face shifted up-left -->
    <circle cx="128" cy="128" r="100" fill="#8A92A6"/>
    <g mask="url(#ring)"><circle cx="123" cy="121" r="99" fill="#B8BFCC"/></g>
    <!-- worn perforated band -->
    <circle cx="128" cy="128" r="90.5" fill="none" stroke="#FFFFFF" stroke-width="5" stroke-dasharray="10 7" stroke-linecap="round" opacity=".9"/>
    <g fill="#8A92A6" opacity=".55">
      <circle cx="58" cy="152" r="4"/><circle cx="196" cy="92" r="3"/><circle cx="170" cy="196" r="3.5"/><circle cx="96" cy="46" r="3"/>
    </g>
    <!-- centre -->
    <circle cx="128" cy="128" r="81" fill="#1E1B2E"/>
    <circle cx="128" cy="128" r="74" fill="#FFF4DC"/>
    <circle cx="128" cy="128" r="74" fill="#E9D3A6" mask="url(#inset)"/>
    <g mask="url(#disc)">
      <g transform="translate(128 132) scale(1.12) translate(-128 -128)">
      <path d="M40,178 H216 V220 H40 Z" fill="#7D869C" opacity=".45"/>
      <rect x="146" y="92" width="16" height="30" rx="3" fill="#4E566B"/>
      <polygon points="80,132 128,88 176,132" fill="#4E566B" stroke="#4E566B" stroke-width="12" stroke-linejoin="round"/>
      <rect x="94" y="124" width="68" height="54" rx="4" fill="#4E566B"/>
      <path d="M118,178 V156 Q118,146 128,146 Q138,146 138,156 V178 Z" fill="#FFF4DC"/>
      <rect x="100" y="138" width="12" height="12" rx="2" fill="#FFF4DC"/>
      <rect x="144" y="138" width="12" height="12" rx="2" fill="#FFF4DC"/>
      <path d="M92,120 L128,96" stroke="#7D869C" stroke-width="5" stroke-linecap="round"/>
      </g>
      <!-- uneven-ink specks: rubber-stamp texture -->
      <g fill="#FFF4DC" opacity=".75">
        <circle cx="104" cy="150" r="2.6"/><circle cx="146" cy="118" r="2.2"/><circle cx="120" cy="176" r="2"/>
        <circle cx="160" cy="160" r="2.4"/><circle cx="96" cy="112" r="1.8"/><circle cx="136" cy="96" r="1.6"/>
      </g>
    </g>
    <!-- highlight on the ring -->
    <path d="M44,108 A86,86 0 0 1 92,48" fill="none" stroke="#fff" stroke-width="9" stroke-linecap="round" opacity=".75"/>
  </g>
</svg>
