<svg xmlns="http://www.w3.org/2000/svg" width="256" height="256" viewBox="0 0 256 256">
  <!-- stamp_americas: passport stamp for region "Americas". Region ring #5AD296, emblem #1C7048.
       Frame is shared by all stamp_*.svg: ring + worn dashed band + cream centre + emblem. -->
  <defs>
    <mask id="ring"><circle cx="128" cy="128" r="100" fill="#fff"/></mask>
    <mask id="disc"><circle cx="128" cy="128" r="74" fill="#fff"/></mask>
    <mask id="inset">
      <circle cx="128" cy="128" r="74" fill="#fff"/>
      <circle cx="133" cy="135" r="74" fill="#000"/>
    </mask>
  </defs>
  <g transform="rotate(-4 128 128)">
    <!-- outline + depth -->
    <circle cx="128" cy="135" r="112" fill="#1E1B2E"/>
    <circle cx="128" cy="128" r="112" fill="#1E1B2E"/>
    <!-- ring: shade, then lit face shifted up-left -->
    <circle cx="128" cy="128" r="100" fill="#2FA36B"/>
    <g mask="url(#ring)"><circle cx="123" cy="121" r="99" fill="#5AD296"/></g>
    <!-- worn perforated band -->
    <circle cx="128" cy="128" r="90.5" fill="none" stroke="#FFF4DC" stroke-width="5" stroke-dasharray="10 7" stroke-linecap="round" opacity=".9"/>
    <g fill="#2FA36B" opacity=".55">
      <circle cx="58" cy="152" r="4"/><circle cx="196" cy="92" r="3"/><circle cx="170" cy="196" r="3.5"/><circle cx="96" cy="46" r="3"/>
    </g>
    <!-- centre -->
    <circle cx="128" cy="128" r="81" fill="#1E1B2E"/>
    <circle cx="128" cy="128" r="74" fill="#FFF4DC"/>
    <circle cx="128" cy="128" r="74" fill="#E9D3A6" mask="url(#inset)"/>
    <g mask="url(#disc)">
      <g transform="translate(128 132) scale(1.12) translate(-128 -128)">
      <path d="M40,178 H216 V220 H40 Z" fill="#3DB87A" opacity=".45"/>
      <circle cx="86" cy="86" r="12" fill="#3DB87A"/>
      <g fill="none" stroke="#1C7048" stroke-width="20" stroke-linecap="round" stroke-linejoin="round">
        <path d="M118,140 H102 Q94,140 94,132 V112"/>
        <path d="M138,126 H154 Q162,126 162,118 V98"/>
      </g>
      <rect x="116" y="66" width="26" height="114" rx="13" fill="#1C7048"/>
      <path d="M125,80 V168 M133,80 V168" stroke="#3DB87A" stroke-width="3" stroke-linecap="round"/>
      <path d="M92,120 V114 M160,106 V100" stroke="#3DB87A" stroke-width="3" stroke-linecap="round"/>
      <path d="M64,178 Q96,168 120,178 M136,178 Q168,170 196,178" fill="none" stroke="#1C7048" stroke-width="6" stroke-linecap="round"/>
      </g>
      <!-- uneven-ink specks: rubber-stamp texture -->
      <g fill="#FFF4DC" opacity=".75">
        <circle cx="104" cy="150" r="2.6"/><circle cx="146" cy="118" r="2.2"/><circle cx="120" cy="176" r="2"/>
        <circle cx="160" cy="160" r="2.4"/><circle cx="96" cy="112" r="1.8"/><circle cx="136" cy="96" r="1.6"/>
      </g>
    </g>
    <!-- highlight on the ring -->
    <path d="M44,108 A86,86 0 0 1 92,48" fill="none" stroke="#fff" stroke-width="9" stroke-linecap="round" opacity=".75"/>
  </g>
</svg>
